# xmcd CD database file
# Copyright (C) 1996 Ti Kan
#
# Track frame offsets:
#	150
#	17709
#	34901
#	49490
#	64768
#	84646
#	101788
#	118293
#	136925
#	151453
#	171018
#	184892
#	203991
# Disc length: 3291 seconds
#
# Revision: 2
# Processed by: cddbd v1.5.1PL0 Copyright (c) Steve Scherf et al.
# Submitted via: CDCOPY 4.900
#
DISCID=bd0cd90d
DTITLE=Rascal Flatts - Feels Like Today
DYEAR=1900
DGENRE=
TTITLE0=Where You Are
TTITLE1=Bless The Broken Road
TTITLE2=Then I Did
TTITLE3=Feels Like Today
TTITLE4=Fast Cars And Freedom
TTITLE5=When The Sand Runs Out
TTITLE6=Here's To You
TTITLE7=The Day Before You
TTITLE8=Break Away
TTITLE9=Holes
TTITLE10=Oklahoma-Texas Line
TTITLE11=Baby Don't Get Hooked On Me
TTITLE12=The Man In Love With You
EXTD=
EXTT0=
EXTT1=
EXTT2=
EXTT3=
EXTT4=
EXTT5=
EXTT6=
EXTT7=
EXTT8=
EXTT9=
EXTT10=
EXTT11=
EXTT12=
PLAYORDER=
